<svg xmlns="http://www.w3.org/2000/svg" viewBox="0 0 226.52 216.86"><defs><style>.cls-1,.cls-2{fill:#fff;}.cls-2{stroke:#fff;stroke-miterlimit:10;stroke-width:10px;}</style></defs><g id="Layer_2" data-name="Layer 2"><g id="Layer_1-2" data-name="Layer 1"><path class="cls-1" d="M222.43,198.93v5.73a12.2,12.2,0,0,1-12.2,12.2H15.7a12.21,12.21,0,0,1-12.21-12.2v-5.73a12.21,12.21,0,0,1,12.21-12.2H59.91a147.61,147.61,0,0,1-16.17-10.58c-35.9-26.92-53.15-64.54-38.55-84,11.89-15.84,41.22-14.79,71.07.67l.58.3c4.54-35.64,19.26-61.74,36.72-61.74a17.3,17.3,0,0,1,3.86.43h0c15.49,4,28.15,28.76,32.26,61.43l.54-.28c29.86-15.46,59.18-16.52,71.07-.68,14.6,19.47-2.66,57.09-38.55,84a148.5,148.5,0,0,1-15.91,10.43h43.36A12.2,12.2,0,0,1,222.43,198.93Z"/><path class="cls-1" d="M117.42,31.8a17.3,17.3,0,0,0-3.86-.43c-17.46,0-32.18,26.1-36.72,61.74l-.58-.3C80.83,57.25,95.53,31.22,113,31.22A17.66,17.66,0,0,1,117.42,31.8Z"/><path class="cls-1" d="M150.26,93l-.54.28C145.61,60.57,133,35.85,117.46,31.81,133.15,35.36,146,60.08,150.26,93Z"/><line class="cls-2" x1="113.52" y1="32.22" x2="113.72" y2="0.03"/><line class="cls-2" x1="103.14" y1="13.82" x2="124.47" y2="13.82"/></g></g></svg>