<svg xmlns="http://www.w3.org/2000/svg" viewBox="0 0 161 207.45"><defs><style>.cls-1{fill:#fff;}</style></defs><g id="Layer_2" data-name="Layer 2"><g id="Layer_1-2" data-name="Layer 1"><path class="cls-1" d="M161,187.12a19.08,19.08,0,0,1-18.91,19.39l-103.89.94A19.1,19.1,0,0,1,21.9,178.13c8.67-13.73,21.27-27.37,35.79-40.23C82.66,115.76,85.78,97,87.48,80S67.62,60.71,67.62,60.71C37.82,55.6,37,73.48,37,73.48s-1.7,20.43-20.15,25.25-22-4.66-9.2-63.82a46.79,46.79,0,0,1,4-11.56C8.67,17.92,0,.9,5.48,0,7.82-.37,17.4,7.09,23.21,11.83a11.23,11.23,0,0,1,3-.78l13.28.63a20.52,20.52,0,0,0,8.1-1.27C58.47,6.33,93.06-2.4,126.36,34.32,156,66.94,160.37,149.49,161,187.12Z"/></g></g></svg>