<svg xmlns="http://www.w3.org/2000/svg" viewBox="0 0 202.5 185.48"><defs><style>.cls-1{fill:#fff;}</style></defs><g id="Layer_2" data-name="Layer 2"><g id="Layer_1-2" data-name="Layer 1"><path class="cls-1" d="M202.5,15.19c0,4.64-2.52,8.4-5.62,8.4a3.73,3.73,0,0,1-1-.14L154.5,120.19l14,45.34a20,20,0,0,1-19.95,19.95H54A20,20,0,0,1,34,165.53l14-45.34L6.63,23.45a3.73,3.73,0,0,1-1,.14c-3.1,0-5.62-3.76-5.62-8.4S2.52,6.8,5.62,6.8s5.63,3.76,5.63,8.39A10.21,10.21,0,0,1,9,21.9L76.76,93.48,65.94,18.2c-3.3-.1-6-4.14-6-9.1S62.71,0,66.07,0s6.09,4.07,6.09,9.1c0,3.48-1.31,6.51-3.23,8l32.32,56.69,32.32-56.69c-1.92-1.53-3.23-4.56-3.23-8,0-5,2.72-9.1,6.09-9.1s6.09,4.07,6.09,9.1-2.66,9-6,9.1L125.74,93.48,193.5,21.9a10.21,10.21,0,0,1-2.25-6.71c0-4.63,2.52-8.39,5.63-8.39S202.5,10.56,202.5,15.19Z"/></g></g></svg>