<svg xmlns="http://www.w3.org/2000/svg" viewBox="0 0 161 207.45"><g id="Layer_2" data-name="Layer 2"><g id="Layer_1-2" data-name="Layer 1"><path d="M161,187.12a19.1,19.1,0,0,1-18.92,19.39l-103.88.94a19.1,19.1,0,0,1-16.3-29.32c8.67-13.73,21.27-27.37,35.79-40.23,25-22.14,28.1-40.87,29.8-57.9S67.62,60.71,67.62,60.71C37.83,55.6,37,73.48,37,73.48S35.27,93.91,16.83,98.73s-22.06-4.66-9.2-63.82a47.32,47.32,0,0,1,4-11.57C8.67,17.91,0,.9,5.48,0,7.82-.37,17.4,7.09,23.21,11.83a11.23,11.23,0,0,1,3-.78l13.29.63a20.47,20.47,0,0,0,8.09-1.27c10.9-4.08,45.5-12.81,78.8,23.91C156,66.94,160.38,149.49,161,187.12Z"/></g></g></svg>