<svg xmlns="http://www.w3.org/2000/svg" viewBox="0 0 203.5 186.48"><defs><style>.cls-1{stroke:#000;stroke-miterlimit:10;}</style></defs><g id="Layer_2" data-name="Layer 2"><g id="Layer_1-2" data-name="Layer 1"><path class="cls-1" d="M203,15.69c0,4.64-2.52,8.4-5.62,8.4a3.73,3.73,0,0,1-1-.14L155,120.69,169,166A20,20,0,0,1,149,186H54.47A20,20,0,0,1,34.52,166l14-45.34L7.13,24a3.73,3.73,0,0,1-1,.14C3,24.09.5,20.33.5,15.69S3,7.3,6.12,7.3s5.63,3.76,5.63,8.39A10.21,10.21,0,0,1,9.5,22.4L77.26,94,66.44,18.7c-3.3-.1-6-4.14-6-9.1S63.21.5,66.57.5s6.09,4.07,6.09,9.1c0,3.48-1.31,6.51-3.23,8l32.32,56.69,32.32-56.69c-1.92-1.53-3.23-4.56-3.23-8,0-5,2.72-9.1,6.09-9.1S143,4.57,143,9.6s-2.66,9-6,9.1L126.24,94,194,22.4a10.21,10.21,0,0,1-2.25-6.71c0-4.63,2.52-8.39,5.63-8.39S203,11.06,203,15.69Z"/></g></g></svg>