<svg xmlns="http://www.w3.org/2000/svg" viewBox="0 0 116.9 200.5"><defs><style>.cls-1{stroke:#000;stroke-miterlimit:10;}</style></defs><g id="Layer_2" data-name="Layer 2"><g id="Layer_1-2" data-name="Layer 1"><path class="cls-1" d="M116.4,185.59V192a8,8,0,0,1-8,8H8.52a8,8,0,0,1-8-8v-6.39a8,8,0,0,1,7.58-8,115.3,115.3,0,0,0,44.75-12.21C36.07,146.94,25.18,117,25.18,83.26c0-31.66,9.58-59.94,24.58-78.53a11.4,11.4,0,0,1,17.73,0c15,18.59,24.59,46.87,24.59,78.53,0,33.84-11,63.81-27.76,82.23a115.16,115.16,0,0,0,44.5,12.09A8,8,0,0,1,116.4,185.59Z"/></g></g></svg>