<svg xmlns="http://www.w3.org/2000/svg" viewBox="0 0 148.83 256.17"><defs><style>.cls-1{fill:#fff;}</style></defs><g id="Layer_2" data-name="Layer 2"><g id="Layer_1-2" data-name="Layer 1"><path class="cls-1" d="M148.83,237.66v8.21a10.31,10.31,0,0,1-10.31,10.3H10.3A10.3,10.3,0,0,1,0,245.87v-8.21a10.33,10.33,0,0,1,9.73-10.28A148,148,0,0,0,67.2,211.69C45.68,188,31.69,149.63,31.69,106.27c0-40.66,12.3-77,31.57-100.84A14.65,14.65,0,0,1,86,5.43c19.26,23.88,31.56,60.18,31.56,100.84,0,43.46-14,81.94-35.65,105.58a148.11,148.11,0,0,0,57.15,15.53A10.33,10.33,0,0,1,148.83,237.66Z"/></g></g></svg>