<svg xmlns="http://www.w3.org/2000/svg" viewBox="0 0 226.52 211.83"><defs><style>.cls-1{fill:#fff;}</style></defs><g id="Layer_2" data-name="Layer 2"><g id="Layer_1-2" data-name="Layer 1"><path class="cls-1" d="M222.44,193.9v5.73a12.2,12.2,0,0,1-12.2,12.2H15.71A12.2,12.2,0,0,1,3.5,199.63V193.9a12.2,12.2,0,0,1,12.21-12.2H59.92a147.61,147.61,0,0,1-16.17-10.58c-35.9-26.93-53.16-64.54-38.55-84,11.89-15.84,41.21-14.79,71.07.67l.58.3c4.29-33.69,17.68-58.86,33.88-61.5V13h-9V9h9V0h4V9h8v4h-8V26.39a16.4,16.4,0,0,1,2.7.38h0c15.49,4,28.15,28.76,32.25,61.43l.55-.28c29.85-15.46,59.18-16.52,71.06-.68,14.61,19.47-2.65,57.09-38.55,84a148,148,0,0,1-15.91,10.43h43.37A12.2,12.2,0,0,1,222.44,193.9Z"/><path class="cls-1" d="M110.73,26.34v.24c-16.2,2.64-29.59,27.81-33.88,61.5l-.58-.3C80.64,53.75,94.29,28.45,110.73,26.34Z"/><path class="cls-1" d="M117.43,26.77a16.4,16.4,0,0,0-2.7-.38v-.1A16.61,16.61,0,0,1,117.43,26.77Z"/><path class="cls-1" d="M150.27,87.93l-.55.28c-4.1-32.67-16.76-57.39-32.25-61.43C133.16,30.33,146,55.05,150.27,87.93Z"/></g></g></svg>